# xmcd CD database file generated by OrangeCD 6.3
#
# Track frame offsets:
#	150
#	39352
#	63617
#	103522
#	136490
#	173800
#
# Disc length: 2820 seconds
#
# Revision: 7
# Processed by: cddbd v1.5.2PL0 Copyright (c) Steve Scherf et al.
# Submitted via: OrangeCD 6.3
#
DISCID=4d0b0206
DTITLE=Marillion - Script For A Jester's Tear
DYEAR=1983
DGENRE=Progressive Rock
TTITLE0=Script For A Jester's Tear
TTITLE1=He Knows You Know
TTITLE2=The Web
TTITLE3=Garden Party
TTITLE4=Chelsea Monday
TTITLE5=Forgotten Sons
EXTD=
EXTT0=
EXTT1=
EXTT2=
EXTT3=
EXTT4=
EXTT5=
PLAYORDER=
